<svg width="192" height="240" viewBox="0 0 192 240" fill="none" xmlns="http://www.w3.org/2000/svg">
<g opacity="0.6">
<g opacity="0.7" filter="url(#filter0_f_1_8)">
<ellipse cx="6.34617" cy="6.35303" rx="6.34617" ry="6.35303" transform="matrix(0.965926 0.258819 -0.258261 0.966075 56.8431 165.222)" fill="url(#paint0_radial_1_8)"/>
</g>
<g opacity="0.7" filter="url(#filter1_f_1_8)">
<ellipse cx="12.7142" cy="12.7279" rx="12.7142" ry="12.7279" transform="matrix(0.965926 0.258819 -0.258261 0.966075 122.572 61.2655)" fill="url(#paint1_radial_1_8)"/>
</g>
<path d="M165.694 43.083C179.284 60.6616 186.288 77.0976 163.601 68.686M163.601 68.686C159.634 67.2149 154.758 64.9836 148.85 61.8655C115.99 44.5223 114.161 52.7974 122.276 66.9578M163.601 68.686C161.356 64.6361 158.223 60.0681 154.63 55.4203M163.601 68.686C169.848 79.9533 169.225 87.2108 152.537 81.0233M122.276 66.9578C124.732 71.2437 128.099 76.0687 131.792 80.8857M122.276 66.9578C126.423 68.5388 131.544 70.9087 137.786 74.2028C143.694 77.3209 148.57 79.5522 152.537 81.0233M122.276 66.9578C104.59 60.2154 104.638 67.8243 111.212 79.2951M152.537 81.0233C150.292 76.9734 147.159 72.4054 143.566 67.7576M152.537 81.0233C158.784 92.2906 158.161 99.5481 141.473 93.3606M111.212 79.2951C113.668 83.581 117.035 88.406 120.728 93.223M111.212 79.2951C115.359 80.876 120.48 83.246 126.722 86.5401C132.629 89.6582 137.505 91.8895 141.473 93.3606M111.212 79.2951C93.5259 72.5527 93.5741 80.1616 100.148 91.6324M141.473 93.3606C139.228 89.3107 136.095 84.7427 132.502 80.0949M141.473 93.3606C147.72 104.628 147.097 111.885 130.409 105.698M100.148 91.6324C102.604 95.9183 105.971 100.743 109.664 105.56M100.148 91.6324C104.294 93.2134 109.416 95.5833 115.658 98.8774C121.565 101.996 126.441 104.227 130.409 105.698M100.148 91.6324C82.4619 84.89 82.51 92.4989 89.0836 103.97M130.409 105.698C128.164 101.648 125.031 97.08 121.438 92.4322M130.409 105.698C136.656 116.965 136.033 124.223 119.345 118.035M89.0836 103.97C91.5397 108.256 94.9068 113.081 98.6002 117.898M89.0836 103.97C93.2304 105.551 98.3522 107.921 104.593 111.215C110.501 114.333 115.377 116.564 119.345 118.035M89.0836 103.97C71.3978 97.2273 71.4459 104.836 78.0195 116.307M119.345 118.035C117.1 113.985 113.967 109.417 110.374 104.769M119.345 118.035C125.592 129.303 124.969 136.56 108.281 130.373M78.0195 116.307C80.4756 120.593 83.8427 125.418 87.5361 130.235M78.0195 116.307C82.1664 117.888 87.2882 120.258 93.5294 123.552C99.4372 126.67 104.313 128.901 108.281 130.373M78.0195 116.307C60.3337 109.565 60.3818 117.174 66.9554 128.644M108.281 130.373C106.036 126.323 102.903 121.755 99.3094 117.107M108.281 130.373C114.528 141.64 113.905 148.897 97.217 142.71M66.9554 128.644C69.4116 132.93 72.7787 137.755 76.4721 142.572M66.9554 128.644C71.1023 130.225 76.2241 132.595 82.4653 135.889C88.3732 139.007 93.2492 141.239 97.217 142.71M66.9554 128.644C49.2697 121.902 49.3178 129.511 55.8914 140.982M97.217 142.71C94.9716 138.66 91.8388 134.092 88.2454 129.444M97.217 142.71C103.464 153.977 102.841 161.235 86.1529 155.047M55.8914 140.982C58.3475 145.268 61.7146 150.093 65.408 154.91M55.8914 140.982C60.0382 142.563 65.16 144.932 71.4013 148.227C77.3091 151.345 82.1851 153.576 86.1529 155.047M55.8914 140.982C38.2056 134.239 38.2537 141.848 44.8273 153.319M86.1529 155.047C83.9076 150.997 80.7747 146.429 77.1813 141.781M86.1529 155.047C92.3997 166.314 91.7769 173.572 75.0889 167.384M44.8273 153.319C47.2834 157.605 50.6505 162.43 54.3439 167.247M44.8273 153.319C48.9741 154.9 54.0959 157.27 60.3372 160.564C66.245 163.682 71.121 165.913 75.0889 167.384M44.8273 153.319C27.1415 146.577 27.1896 154.185 33.7632 165.656M75.0889 167.384C72.8435 163.335 69.7106 158.767 66.1172 154.119M75.0889 167.384C82.8209 181.331 80.0283 189.134 49.2731 172.901C43.0319 169.607 37.9101 167.237 33.7632 165.656M33.7632 165.656C36.2193 169.942 39.5864 174.767 43.2799 179.584M33.7632 165.656C9.46946 156.395 18.6372 174.212 32.2158 191.921" stroke="url(#paint2_linear_1_8)" stroke-width="0.42177"/>
<path d="M160.728 48.6191C174.318 66.1977 181.322 82.6337 158.635 74.2222M158.635 74.2222C154.667 72.751 149.791 70.5197 143.883 67.4016C111.024 50.0584 109.195 58.3335 117.309 72.494M158.635 74.2222C156.39 70.1722 153.257 65.6043 149.663 60.9564M158.635 74.2222C164.882 85.4894 164.259 92.747 147.571 86.5595M117.309 72.494C119.766 76.7798 123.133 81.6048 126.826 86.4219M117.309 72.494C121.456 74.0749 126.578 76.4448 132.819 79.7389C138.727 82.857 143.603 85.0883 147.571 86.5595M117.309 72.494C99.6237 65.7515 99.6718 73.3604 106.245 84.8313M147.571 86.5595C145.326 82.5095 142.193 77.9416 138.599 73.2937M147.571 86.5595C153.818 97.8267 153.195 105.084 136.507 98.8968M106.245 84.8313C108.702 89.1171 112.069 93.9421 115.762 98.7592M106.245 84.8313C110.392 86.4122 115.514 88.7821 121.755 92.0762C127.663 95.1943 132.539 97.4256 136.507 98.8968M106.245 84.8313C88.5596 78.0888 88.6078 85.6977 95.1814 97.1686M136.507 98.8968C134.262 94.8468 131.129 90.2789 127.535 85.631M136.507 98.8968C142.754 110.164 142.131 117.422 125.443 111.234M95.1814 97.1686C97.6375 101.454 101.005 106.279 104.698 111.096M95.1814 97.1686C99.3282 98.7495 104.45 101.119 110.691 104.414C116.599 107.532 121.475 109.763 125.443 111.234M95.1814 97.1686C77.4956 90.4261 77.5437 98.035 84.1173 109.506M125.443 111.234C123.198 107.184 120.065 102.616 116.471 97.9683M125.443 111.234C131.69 122.501 131.067 129.759 114.379 123.571M84.1173 109.506C86.5734 113.792 89.9405 118.617 93.6339 123.434M84.1173 109.506C88.2641 111.087 93.3859 113.457 99.6272 116.751C105.535 119.869 110.411 122.1 114.379 123.571M84.1173 109.506C66.4315 102.763 66.4796 110.372 73.0532 121.843M114.379 123.571C112.133 119.521 109.001 114.953 105.407 110.306M114.379 123.571C120.626 134.839 120.003 142.096 103.315 135.909M73.0532 121.843C75.5093 126.129 78.8764 130.954 82.5698 135.771M73.0532 121.843C77.2 123.424 82.3218 125.794 88.5631 129.088C94.4709 132.206 99.3469 134.437 103.315 135.909M73.0532 121.843C55.3674 115.101 55.4155 122.71 61.9891 134.18M103.315 135.909C101.069 131.859 97.9365 127.291 94.3431 122.643M103.315 135.909C109.562 147.176 108.939 154.433 92.2507 148.246M61.9891 134.18C64.4453 138.466 67.8123 143.291 71.5058 148.108M61.9891 134.18C66.136 135.761 71.2578 138.131 77.499 141.425C83.4068 144.544 88.2829 146.775 92.2507 148.246M61.9891 134.18C44.3034 127.438 44.3515 135.047 50.9251 146.518M92.2507 148.246C90.0053 144.196 86.8725 139.628 83.2791 134.98M92.2507 148.246C98.4974 159.513 97.8746 166.771 81.1866 160.583M50.9251 146.518C53.3812 150.804 56.7483 155.629 60.4417 160.446M50.9251 146.518C55.0719 148.099 60.1937 150.469 66.435 153.763C72.3428 156.881 77.2188 159.112 81.1866 160.583M50.9251 146.518C33.2393 139.775 33.2874 147.384 39.861 158.855M81.1866 160.583C78.9413 156.533 75.8084 151.965 72.215 147.318M81.1866 160.583C87.4334 171.851 86.8106 179.108 70.1225 172.921M39.861 158.855C42.3171 163.141 45.6842 167.966 49.3776 172.783M39.861 158.855C44.0078 160.436 49.1296 162.806 55.3709 166.1C61.2787 169.218 66.1547 171.449 70.1225 172.921M39.861 158.855C22.1752 152.113 22.2233 159.722 28.7969 171.192M70.1225 172.921C67.8772 168.871 64.7443 164.303 61.1509 159.655M70.1225 172.921C77.8546 186.867 75.062 194.67 44.3068 178.437C38.0656 175.143 32.9438 172.773 28.7969 171.192M28.7969 171.192C31.253 175.478 34.6201 180.303 38.3136 185.12M28.7969 171.192C4.50316 161.931 13.6709 179.748 27.2495 197.458" stroke="url(#paint3_linear_1_8)" stroke-width="0.42177"/>
</g>
<defs>
<filter id="filter0_f_1_8" x="49.9237" y="161.586" width="22.8171" height="22.8326" filterUnits="userSpaceOnUse" color-interpolation-filters="sRGB">
<feFlood flood-opacity="0" result="BackgroundImageFix"/>
<feBlend mode="normal" in="SourceGraphic" in2="BackgroundImageFix" result="shape"/>
<feGaussianBlur stdDeviation="2.53062" result="effect1_foregroundBlur_1_8"/>
</filter>
<filter id="filter1_f_1_8" x="109.149" y="54.4195" width="44.8342" height="44.8654" filterUnits="userSpaceOnUse" color-interpolation-filters="sRGB">
<feFlood flood-opacity="0" result="BackgroundImageFix"/>
<feBlend mode="normal" in="SourceGraphic" in2="BackgroundImageFix" result="shape"/>
<feGaussianBlur stdDeviation="4.85036" result="effect1_foregroundBlur_1_8"/>
</filter>
<radialGradient id="paint0_radial_1_8" cx="0" cy="0" r="1" gradientUnits="userSpaceOnUse" gradientTransform="translate(6.34617 6.35303) rotate(90) scale(7.57476 7.56659)">
<stop offset="0.419792" stop-color="#5CE4CF"/>
<stop offset="1" stop-color="#99A9FF"/>
</radialGradient>
<radialGradient id="paint1_radial_1_8" cx="0" cy="0" r="1" gradientUnits="userSpaceOnUse" gradientTransform="translate(12.7142 12.7279) rotate(90) scale(15.1756 15.1592)">
<stop offset="0.419792" stop-color="#5CE4CF"/>
<stop offset="1" stop-color="#99A9FF"/>
</radialGradient>
<linearGradient id="paint2_linear_1_8" x1="60.8129" y1="126.591" x2="153.434" y2="88.4876" gradientUnits="userSpaceOnUse">
<stop stop-color="#99A9FF"/>
<stop offset="1" stop-color="#5CE5CF"/>
</linearGradient>
<linearGradient id="paint3_linear_1_8" x1="113.6" y1="140.669" x2="73.2731" y2="104.504" gradientUnits="userSpaceOnUse">
<stop offset="0.14407" stop-color="#99A9FF"/>
<stop offset="0.726512" stop-color="#66FFE5" stop-opacity="0.35"/>
</linearGradient>
</defs>
</svg>
